<mxfile host="app.diagrams.net" modified="2023-11-14T00:40:42.652Z" agent="Mozilla/5.0 (Windows NT 10.0; Win64; x64) AppleWebKit/537.36 (KHTML, like Gecko) Chrome/119.0.0.0 Safari/537.36" version="22.1.0" etag="vWRncmro9T19n09cz0P7" type="github">
  <diagram name="Page-1" id="ieSAz0uYDgwwjIh09kLK">
    <mxGraphModel>
      <root>
        <mxCell id="0" />
        <mxCell id="1" parent="0" />
      </root>
    </mxGraphModel>
  </diagram>
</mxfile>
